<svg viewBox="0 0 240 110" xmlns="http://www.w3.org/2000/svg">
  <rect width="240" height="110" fill="#0a0a0a" rx="6"/>
  <text x="120" y="18" text-anchor="middle" font-family="monospace" font-size="8" fill="#06b6d4" opacity="0.5">// data pipeline</text>
  <rect x="8" y="30" width="58" height="50" fill="#111" stroke="#06b6d4" stroke-width="1" stroke-opacity="0.35" rx="4"/>
  <text x="37" y="50" text-anchor="middle" font-family="monospace" font-size="8" fill="#e2e8f0" opacity="0.6">Legacy</text>
  <text x="37" y="63" text-anchor="middle" font-family="monospace" font-size="8" fill="#e2e8f0" opacity="0.6">System</text>
  <text x="37" y="75" text-anchor="middle" font-family="monospace" font-size="7" fill="#06b6d4" opacity="0.5">.csv / .xlsx</text>
  <line x1="68" y1="55" x2="84" y2="55" stroke="#06b6d4" stroke-width="1.5" stroke-opacity="0.5"/>
  <polygon points="84,51 92,55 84,59" fill="#06b6d4" opacity="0.5"/>
  <rect x="92" y="22" width="56" height="66" fill="#0d1a2a" stroke="#06b6d4" stroke-width="1.5" rx="4"/>
  <text x="120" y="42" text-anchor="middle" font-family="monospace" font-size="9" font-weight="700" fill="#06b6d4">HDL</text>
  <line x1="100" y1="48" x2="140" y2="48" stroke="#06b6d4" stroke-width="0.5" stroke-opacity="0.3"/>
  <text x="120" y="60" text-anchor="middle" font-family="monospace" font-size="9" font-weight="700" fill="#06b6d4">FBDI</text>
  <line x1="100" y1="66" x2="140" y2="66" stroke="#06b6d4" stroke-width="0.5" stroke-opacity="0.3"/>
  <text x="120" y="78" text-anchor="middle" font-family="monospace" font-size="9" font-weight="700" fill="#06b6d4">REST</text>
  <line x1="150" y1="55" x2="166" y2="55" stroke="#06b6d4" stroke-width="1.5" stroke-opacity="0.5"/>
  <polygon points="166,51 174,55 166,59" fill="#06b6d4" opacity="0.5"/>
  <rect x="174" y="30" width="58" height="50" fill="#111" stroke="#06b6d4" stroke-width="1" stroke-opacity="0.35" rx="4"/>
  <text x="203" y="50" text-anchor="middle" font-family="monospace" font-size="8" fill="#e2e8f0" opacity="0.6">Oracle</text>
  <text x="203" y="63" text-anchor="middle" font-family="monospace" font-size="8" fill="#06b6d4">Cloud</text>
  <text x="203" y="75" text-anchor="middle" font-family="monospace" font-size="7" fill="#e2e8f0" opacity="0.4">HCM / ERP</text>
</svg>
