<svg viewBox="0 0 240 110" xmlns="http://www.w3.org/2000/svg" shape-rendering="crispEdges">
  <rect width="240" height="110" fill="#0a0a0a" rx="6"/>
  <text x="12" y="16" font-family="monospace" font-size="8" fill="#06b6d4" opacity="0.5">// now playing</text>

  <g transform="translate(94, 14)">
    <rect x="2" y="0" width="48" height="92" fill="#1e293b"/>
    <rect x="0" y="2" width="52" height="88" fill="#1e293b"/>
    <rect x="2" y="2" width="48" height="88" fill="#e2e8f0"/>

    <rect x="6" y="6" width="40" height="32" fill="#0a0a0a"/>
    <rect x="9" y="26" width="3" height="9" fill="#06b6d4"/>
    <rect x="13" y="20" width="3" height="15" fill="#06b6d4"/>
    <rect x="17" y="14" width="3" height="21" fill="#06b6d4"/>
    <rect x="21" y="22" width="3" height="13" fill="#06b6d4"/>
    <rect x="25" y="10" width="3" height="25" fill="#06b6d4"/>
    <rect x="29" y="18" width="3" height="17" fill="#06b6d4"/>
    <rect x="33" y="24" width="3" height="11" fill="#06b6d4"/>
    <rect x="37" y="20" width="3" height="15" fill="#06b6d4"/>
    <rect x="41" y="28" width="3" height="7" fill="#06b6d4"/>

    <circle cx="26" cy="64" r="19" fill="#cbd5e1"/>
    <circle cx="26" cy="64" r="7" fill="#0a0a0a"/>

    <text x="26" y="51" font-family="monospace" font-size="5" fill="#64748b" text-anchor="middle">MENU</text>
    <text x="26" y="79" font-family="monospace" font-size="6" fill="#64748b" text-anchor="middle">▶▍</text>
    <text x="14" y="67" font-family="monospace" font-size="6" fill="#64748b" text-anchor="middle">◀◀</text>
    <text x="38" y="67" font-family="monospace" font-size="6" fill="#64748b" text-anchor="middle">▶▶</text>
  </g>

  <text x="36" y="42" font-family="monospace" font-size="14" fill="#06b6d4" opacity="0.7">♪</text>
  <text x="58" y="68" font-family="monospace" font-size="10" fill="#06b6d4" opacity="0.4">♫</text>
  <text x="22" y="78" font-family="monospace" font-size="9" fill="#06b6d4" opacity="0.35">♪</text>
  <text x="186" y="40" font-family="monospace" font-size="12" fill="#06b6d4" opacity="0.6">♫</text>
  <text x="208" y="68" font-family="monospace" font-size="10" fill="#06b6d4" opacity="0.4">♪</text>
  <text x="178" y="84" font-family="monospace" font-size="9" fill="#06b6d4" opacity="0.35">♫</text>

  <text x="12" y="102" font-family="monospace" font-size="7" fill="#3b82f6" opacity="0.7">320kbps · mp3</text>
  <text x="178" y="102" font-family="monospace" font-size="7" fill="#06b6d4" opacity="0.5">spotify→mp3</text>
</svg>
